<svg viewBox="0 0 162 46" fill="none" xmlns="http://www.w3.org/2000/svg">
<path d="M18.0374 9.5918C20.8666 17.0914 16.2506 21.9076 11.6595 26.7302C7.37855 31.6565 3.61257 36.7837 11.1942 46.0011C8.36502 38.5014 12.9748 33.6853 17.5721 28.8627C21.8468 23.9299 25.6128 18.8157 18.0374 9.5918Z" fill="#E84241"/>
<path d="M11.1917 0C14.0209 7.50613 9.40497 12.3158 4.81383 17.1384C0.539113 22.0711 -3.23306 27.1984 4.34851 36.4093C1.51938 28.9031 6.12907 24.0935 10.7264 19.2709C15.0073 14.3381 18.7671 9.21737 11.1917 0Z" fill="#0AA373"/>
<path d="M128.07 29.5469V45.0582H134.504V39.38H141.664V35.9835H134.504V32.9434H148.713V45.0582H155.153V32.9434H161.004V29.5469H128.07Z" fill="#0AA373"/>
<path d="M114.424 41.3386V38.6486H122.918V35.2521H114.424V32.588H125.319V29.1914H107.984V44.7028H125.449V41.3386H114.424Z" fill="#0AA373"/>
<path d="M82.1405 29.5469H64.5391V32.9434H70.2966V45.0582H76.7304V32.9434H82.1405V29.5469Z" fill="#E84241"/>
<path d="M45.8921 29.5469H27.875V32.9434H33.6325V45.0582H40.0725V32.9434H45.8921V29.5469Z" fill="#E84241"/>
<path d="M58.6266 29.5469H51.684L43.5938 45.0582H47.8064L49.1341 42.3942H58.2171L59.5448 45.0582H66.7169L58.6266 29.5469ZM50.741 39.1856L53.7377 33.1768L56.604 39.1856H50.741Z" fill="#E84241"/>
<path d="M99.7381 29.5469V37.2993L89.3708 29.5469H84.3516V45.0582H88.7814V36.5215L99.4217 45.0582H104.168V29.5469H99.7381Z" fill="#0AA373"/>
</svg>
